<svg width="305" height="426" viewBox="0 0 305 426" fill="none" xmlns="http://www.w3.org/2000/svg">
<g clip-path="url(#clip0_7_2)">
<path fill-rule="evenodd" clip-rule="evenodd" d="M42.0773 426.01C42.0773 426.01 42.1023 424.605 42.7283 423.214C43.3419 421.822 44.5689 420.43 44.5689 420.43C44.5689 420.43 42.478 419.991 34.8029 421.408C27.1404 422.825 17.0864 424.33 17.0864 424.33C17.0864 424.33 17.5246 421.897 20.6547 420.117C23.7723 418.324 29.5818 417.17 29.5818 417.17L19.5028 417.308C19.5028 417.308 23.8349 411.741 36.9814 407.352C50.128 402.964 72.0889 399.754 72.0889 399.754C72.0889 399.754 94.9764 400.042 105.519 400.769C116.061 401.497 105.544 414.838 104.68 416.154" fill="#71584B"/>
<path fill-rule="evenodd" clip-rule="evenodd" d="M94.0248 355.003L125.852 361.824L119.028 388.018C119.028 388.018 109.15 411.176 104.817 413.634C99.6214 416.581 50.8291 422.173 50.8291 422.173C50.8291 422.173 51.4927 418.549 53.809 416.029C56.1127 413.496 60.0567 412.067 60.0567 412.067L37.9956 414.625C37.9956 414.625 40.2493 411.816 43.6048 410.148C46.9477 408.493 51.38 407.979 51.38 407.979L37.6075 409.509C37.6075 409.509 53.8716 401.998 65.0273 399.553C67.1558 399.089 74.5679 400.243 81.3415 396.356C86.6377 393.334 94.0248 355.003 94.0248 355.003V355.003Z" fill="url(#paint0_linear_7_2)"/>
<path fill-rule="evenodd" clip-rule="evenodd" d="M68.8961 67.7922L128.256 58.8396C128.256 58.8396 128.093 73.2716 126.591 82.8387C125.088 92.3931 122.246 97.0826 123.373 98.7377C131.123 110.085 148.89 137.206 164.44 177.719C179.99 218.219 185.575 260.762 185.575 260.762C185.575 260.762 189.231 293.438 195.741 313.287C202.239 333.136 211.592 340.157 211.592 340.157L210.378 355.618L118.502 229.616L68.8961 67.7922V67.7922Z" fill="black"/>
<path fill-rule="evenodd" clip-rule="evenodd" d="M154.599 368.884C154.599 368.884 182.495 371.943 185.95 378.538C187.791 382.074 176.647 388.883 176.647 388.883L158.042 394.4L162.174 395.44H169.073C169.073 395.44 162.437 398.625 156.327 404.406C150.204 410.186 147.299 418.298 147.299 418.298C147.299 418.298 149.691 422.687 162.174 417.508C174.669 412.343 194.552 397.848 194.552 397.848C194.552 397.848 211.918 394.638 219.58 388.945C227.243 383.253 225.214 375.09 225.214 375.09L178.363 329.211L154.599 368.884V368.884Z" fill="#71584B"/>
<path fill-rule="evenodd" clip-rule="evenodd" d="M154.599 368.884C154.599 368.884 182.495 371.943 185.95 378.538C187.791 382.074 179.815 386.927 179.815 386.927L167.082 394.4L177.612 392.995C177.612 392.995 164.878 402.788 158.768 408.568C152.646 414.336 156.327 417.809 156.327 417.809C156.327 417.809 150.43 419.264 162.913 414.085C175.395 408.92 191.622 396.632 191.622 396.632C191.622 396.632 208.75 394.387 216.413 388.695C224.075 383.002 221.546 374.112 221.546 374.112L178.363 329.211L154.599 368.884V368.884Z" fill="url(#paint1_linear_7_2)"/>
<path fill-rule="evenodd" clip-rule="evenodd" d="M72.4269 69.2467C78.5745 69.7607 85.4983 101.684 85.4983 101.684L124.713 172.841C124.713 172.841 141.34 186.22 149.728 204.15C158.105 222.081 154.211 221.366 158.255 244.562C163.088 272.323 182.695 292.385 182.695 292.385C182.695 292.385 183.121 298.228 187.24 314.578C191.084 329.813 211.68 353.285 211.68 353.285C211.68 353.285 213.533 358.276 207.135 359.555C200.737 360.834 194.126 361.486 186.1 358.414C181.268 356.57 179.427 347.317 174.168 349.875C168.91 352.433 171.614 362.401 165.079 368.658C158.53 374.927 159.244 374.639 148.026 374.927C136.795 375.203 131.962 373.209 120.168 369.799C108.373 366.388 108.511 359.266 100.848 361.26C93.1734 363.254 89.4798 377.773 89.4798 377.773L83.7955 376.056C83.7955 376.056 76.8342 350.301 70.7116 339.066C64.6016 327.819 48.5504 261.076 48.5504 261.076C48.5504 261.076 38.1834 222.57 32.0609 186.508C25.9509 150.497 28.7054 124.141 33.7762 110.8C38.3211 98.8129 44.7692 66.9521 72.4269 69.2467V69.2467Z" fill="url(#paint2_radial_7_2)"/>
<path fill-rule="evenodd" clip-rule="evenodd" d="M73.5545 68.1062C73.3661 67.9177 73.1776 67.7292 73.5545 68.1062V68.1062Z" fill="black" fill-opacity="0.30451" stroke="black" stroke-width="2.1807"/>
<path fill-rule="evenodd" clip-rule="evenodd" d="M72.4269 67.5414H75.8325Z" fill="black" fill-opacity="0.30451"/>
<path d="M72.4269 67.5414H75.8325" stroke="black" stroke-width="2.1807"/>
<path fill-rule="evenodd" clip-rule="evenodd" d="M-0.00411987 1.87644C-0.00411987 1.87644 5.07922 -0.593687 11.0515 0.146095C24.8741 1.83882 39.1099 9.66295 54.2972 14.365C69.4846 19.067 62.1476 17.6501 71.8134 18.9541C81.4793 20.2581 82.3181 17.2489 92.9731 19.581C103.628 21.9132 106.783 22.8662 114.433 28.2829C122.083 33.6871 128.356 59.3036 128.356 59.3036C128.356 59.3036 114.859 64.4946 105.256 67.1402C95.6399 69.7984 71.4253 69.2467 71.4253 69.2467C71.4253 69.2467 76.6463 69.8486 75.9702 64.7579C75.3066 59.6546 73.8167 55.9307 70.0856 49.2977C66.342 42.6773 64.9021 41.0974 61.9222 37.6368C58.9549 34.1886 56.9516 34.4895 54.3724 32.1197C46.7975 25.1357 48.663 26.6905 34.7277 16.9354C20.4544 6.92954 -0.00411987 1.87644 -0.00411987 1.87644V1.87644Z" fill="black"/>
<path fill-rule="evenodd" clip-rule="evenodd" d="M91.1451 68.1433C91.1451 68.1433 106.245 64.1435 108.436 59.78C110.639 55.4166 110.827 46.2006 110.827 46.2006C110.827 46.2006 113.344 36.5458 118.277 37.9878C126.002 40.2197 128.118 57.987 128.118 57.987C128.118 57.987 118.803 61.0715 111.716 63.8174C106.408 65.8738 91.1451 68.1433 91.1451 68.1433V68.1433Z" fill="url(#paint3_linear_7_2)"/>
<path fill-rule="evenodd" clip-rule="evenodd" d="M27.6412 11.7067C27.6412 11.7067 50.5912 16.5215 62.0725 22.1639C73.5538 27.7938 75.1189 32.2701 73.5538 34.2513C71.9887 36.2324 62.4607 34.4393 55.8123 30.0759L27.6412 11.7067V11.7067Z" fill="#A86249"/>
<path fill-rule="evenodd" clip-rule="evenodd" d="M137.997 125.57C137.997 125.57 138.072 128.517 163.363 132.63C182.394 135.714 196.968 131.439 238.061 147.802C275.059 162.534 309.69 193.342 304.482 206.545C300.964 215.448 300.425 213.605 300.425 213.605C300.425 213.605 293.689 212.501 286.34 208.489C278.978 204.476 276.912 202.357 270.126 197.906C260.36 191.474 255.765 193.355 243.707 189.254C231.638 185.154 222.735 181.142 222.735 181.142C222.735 181.142 209.326 175.926 196.668 175.675C192.812 175.6 185.262 178.057 176.41 175.148C167.558 172.227 161.26 164.027 161.26 164.027L146.11 161.556L138.886 125.746" fill="black"/>
<path fill-rule="evenodd" clip-rule="evenodd" d="M202.64 142.335C196.593 141.695 192.862 144.027 181.706 144.968C170.55 145.896 162.061 142.736 158.042 146.071C156.865 147.049 156.026 148.855 155.3 152.892C154.924 154.924 149.09 154.585 148.89 156.052C148.689 157.507 153.923 163.237 153.923 163.237L161.072 162.81C161.072 162.81 167.395 170.986 176.247 173.907C185.099 176.816 192.799 175.612 196.655 175.688C209.313 175.938 222.748 181.129 222.748 181.129C222.748 181.129 231.612 185.142 243.682 189.242C254.525 192.928 259.521 192.101 267.471 196.489L271.34 195.436C271.34 195.436 277.35 193.605 278.94 189.091C282.245 179.65 272.304 171.462 253.223 159.776C234.154 148.09 220.795 144.278 202.64 142.335V142.335Z" fill="#8C8C8C"/>
</g>
<defs>
<linearGradient id="paint0_linear_7_2" x1="60.3196" y1="418.211" x2="107.686" y2="364.902" gradientUnits="userSpaceOnUse">
<stop stop-color="#717171"/>
<stop offset="1" stop-color="#020202"/>
</linearGradient>
<linearGradient id="paint1_linear_7_2" x1="167.157" y1="401.973" x2="205.315" y2="351.659" gradientUnits="userSpaceOnUse">
<stop stop-color="#717171"/>
<stop offset="1" stop-color="#020202"/>
</linearGradient>
<radialGradient id="paint2_radial_7_2" cx="0" cy="0" r="1" gradientUnits="userSpaceOnUse" gradientTransform="translate(73.0677 68.5111) rotate(11.8596) scale(291.587 194.155)">
<stop/>
<stop offset="0.026044" stop-color="#87810D"/>
<stop offset="0.0923" stop-color="#D4DE37"/>
<stop offset="0.20962" stop-color="#F4F5DF"/>
<stop offset="0.89784" stop-color="#83E6D7"/>
<stop offset="1" stop-color="#D9D9D1"/>
</radialGradient>
<linearGradient id="paint3_linear_7_2" x1="89.9506" y1="51.8553" x2="127.825" y2="51.8553" gradientUnits="userSpaceOnUse">
<stop stop-color="#EF0500"/>
<stop offset="1" stop-color="#BCB619"/>
</linearGradient>
<clipPath id="clip0_7_2">
<rect width="305" height="426" fill="white"/>
</clipPath>
</defs>
</svg>
